# xmcd
#
# Track frame offsets:
#	150
#	21262
#	41057
#
# Disc length: 835 seconds
#
# Revision: 0
# Processed by: cddbd v1.5PL3 Copyright (c) Steve Scherf et al.
# Submitted via: dBpowerAMP V4.0
#
DISCID=1f034103
DTITLE=Backstreet Boys - Anywhere for you
DYEAR=1900
DGENRE=Pop
TTITLE0=anywhere for you
TTITLE1=i'll never find someone like you
TTITLE2=anywhere for you (spanish ver)
EXTD=
EXTT0=
EXTT1=
EXTT2=
PLAYORDER=
